<svg xmlns="http://www.w3.org/2000/svg" width="2000" height="2000" viewBox="0 0 2000 2000" version="1.1"><path d="M 416.019 43.081 C 324.742 50.119, 238.404 85.931, 169.351 145.394 C 153.937 158.668, 128.334 185.182, 115.657 201 C 105.360 213.848, 89.508 236.540, 81.777 249.500 C 51.393 300.432, 32.440 356.182, 24.323 418.500 C 22.577 431.905, 22.500 456.606, 22.500 1000 C 22.500 1543.394, 22.577 1568.095, 24.323 1581.500 C 36.956 1678.493, 76.587 1761.460, 142.488 1828.881 C 166.452 1853.397, 187.681 1871.015, 214.092 1888.304 C 270.296 1925.097, 331.708 1947.132, 402 1955.727 C 415.729 1957.406, 447.483 1957.500, 999 1957.500 C 1469.806 1957.500, 1583.801 1957.251, 1593.500 1956.201 C 1654.780 1949.570, 1711.992 1931.402, 1763.500 1902.217 C 1776.764 1894.701, 1804.773 1875.759, 1816.894 1866.106 C 1890.241 1807.698, 1942.206 1727.794, 1965.094 1638.230 C 1972.300 1610.031, 1976.273 1584.059, 1977.978 1554 C 1979.336 1530.063, 1979.336 469.937, 1977.978 446 C 1970.949 322.095, 1913.534 210.852, 1816.894 133.894 C 1804.773 124.241, 1776.764 105.299, 1763.500 97.783 C 1713.681 69.555, 1661.231 52.461, 1599.422 44.307 C 1587.386 42.719, 1546.727 42.591, 1006.500 42.437 C 687.500 42.347, 421.784 42.637, 416.019 43.081 M 688.913 257.536 C 593.096 264.997, 501.019 298.560, 422.182 354.761 C 292.417 447.269, 211.310 593.511, 201.042 753.500 C 199.663 774.982, 199.620 1642.240, 200.997 1652.068 C 206.254 1689.578, 229.556 1720.687, 263.287 1735.230 C 278.438 1741.762, 287.054 1743.437, 305.500 1743.437 C 318.597 1743.437, 323.063 1743.043, 330.117 1741.269 C 372.942 1730.494, 403.711 1696.286, 409.961 1652.500 C 410.602 1648.012, 410.967 1567.329, 410.980 1427.654 L 411 1209.808 415.750 1213.393 C 418.363 1215.364, 427.025 1221.421, 435 1226.853 C 499.051 1270.480, 576.423 1300.491, 653 1311.411 C 690.265 1316.725, 676.489 1316.500, 965 1316.500 L 1234.500 1316.500 1242.953 1314.191 C 1262.112 1308.956, 1273.909 1302.095, 1288 1287.990 C 1298.790 1277.191, 1304.492 1268.786, 1309.588 1256.168 C 1324.514 1219.215, 1315.007 1176.751, 1285.662 1149.301 C 1282.059 1145.930, 1277.029 1141.740, 1274.484 1139.989 C 1267.330 1135.067, 1252.305 1128.307, 1242.956 1125.805 L 1234.500 1123.541 977.500 1122.971 C 742.075 1122.450, 719.451 1122.258, 708 1120.685 C 642.805 1111.728, 589.552 1089.772, 540 1051.420 C 526.081 1040.646, 496.487 1011.355, 485.199 997.179 C 455.166 959.462, 434.030 917.123, 421.456 869.492 C 409.088 822.641, 407.693 768.739, 417.595 720.241 C 431.255 653.338, 463.368 594.155, 511.625 546.948 C 543.983 515.294, 578.913 492.082, 619.569 475.215 C 645.298 464.541, 668.281 458.284, 702 452.774 L 715.500 450.568 1216.500 450.020 L 1717.500 449.472 1725.794 447.241 C 1768.274 435.813, 1797.176 401.074, 1799.688 358.426 C 1802.225 315.356, 1775.383 275.266, 1734.723 261.399 C 1717.767 255.616, 1755.019 255.989, 1208.119 256.122 C 807.525 256.220, 702.133 256.507, 688.913 257.536 M 730.849 684.564 C 683.082 693.209, 648.879 736.190, 651.324 784.500 C 653.435 826.216, 681.182 861.398, 721.133 873.013 C 725.185 874.191, 729.400 875.571, 730.500 876.078 C 731.702 876.633, 842.167 877.112, 1007.500 877.279 L 1282.500 877.556 1299 880.188 C 1330.877 885.273, 1356.416 892.377, 1383.340 903.650 C 1437.357 926.265, 1486.011 964.117, 1520.889 1010.659 C 1556.136 1057.694, 1577.361 1108.893, 1586.116 1168 C 1588.711 1185.520, 1589.713 1222.413, 1588.098 1241 C 1580.731 1325.815, 1541.923 1405.038, 1480.175 1461.318 C 1428.619 1508.307, 1367.998 1536.756, 1297 1547.281 L 1282.500 1549.431 1007.081 1549.733 C 847.419 1549.908, 731.208 1550.410, 730.581 1550.928 C 729.987 1551.419, 726.575 1552.576, 723 1553.498 C 701.024 1559.169, 680.402 1574.067, 667.327 1593.718 C 657.306 1608.778, 652.250 1624.189, 651.324 1642.500 C 649.175 1684.951, 675.338 1724.066, 715.364 1738.244 C 732.593 1744.347, 714.455 1744, 1016.431 1744 C 1196.580 1744, 1297.277 1743.642, 1306.050 1742.970 C 1421.527 1734.124, 1524.404 1692.276, 1612.985 1618.115 C 1638.639 1596.637, 1673.118 1559.783, 1694.953 1530.500 C 1769.934 1429.944, 1807.062 1304.645, 1798.966 1179.483 C 1791.468 1063.569, 1746.284 953.705, 1669.628 865 C 1657.262 850.690, 1630.071 823.617, 1615.500 811.106 C 1528.266 736.206, 1419.393 691.767, 1304.170 684.029 C 1294.195 683.360, 1192.741 683.031, 1013.670 683.090 C 783.911 683.165, 737.237 683.408, 730.849 684.564" stroke="none" fill="#04043b" fill-rule="evenodd"/><path d="M 688.913 257.536 C 593.096 264.997, 501.019 298.560, 422.182 354.761 C 292.417 447.269, 211.310 593.511, 201.042 753.500 C 199.663 774.982, 199.620 1642.240, 200.997 1652.068 C 206.254 1689.578, 229.556 1720.687, 263.287 1735.230 C 278.438 1741.762, 287.054 1743.437, 305.500 1743.437 C 318.597 1743.437, 323.063 1743.043, 330.117 1741.269 C 372.942 1730.494, 403.711 1696.286, 409.961 1652.500 C 410.602 1648.012, 410.967 1567.329, 410.980 1427.654 L 411 1209.808 415.750 1213.393 C 418.363 1215.364, 427.025 1221.421, 435 1226.853 C 499.051 1270.480, 576.423 1300.491, 653 1311.411 C 690.265 1316.725, 676.489 1316.500, 965 1316.500 L 1234.500 1316.500 1242.953 1314.191 C 1262.112 1308.956, 1273.909 1302.095, 1288 1287.990 C 1298.790 1277.191, 1304.492 1268.786, 1309.588 1256.168 C 1324.514 1219.215, 1315.007 1176.751, 1285.662 1149.301 C 1282.059 1145.930, 1277.029 1141.740, 1274.484 1139.989 C 1267.330 1135.067, 1252.305 1128.307, 1242.956 1125.805 L 1234.500 1123.541 977.500 1122.971 C 742.075 1122.450, 719.451 1122.258, 708 1120.685 C 642.805 1111.728, 589.552 1089.772, 540 1051.420 C 526.081 1040.646, 496.487 1011.355, 485.199 997.179 C 455.166 959.462, 434.030 917.123, 421.456 869.492 C 409.088 822.641, 407.693 768.739, 417.595 720.241 C 431.255 653.338, 463.368 594.155, 511.625 546.948 C 543.983 515.294, 578.913 492.082, 619.569 475.215 C 645.298 464.541, 668.281 458.284, 702 452.774 L 715.500 450.568 1216.500 450.020 L 1717.500 449.472 1725.794 447.241 C 1768.274 435.813, 1797.176 401.074, 1799.688 358.426 C 1802.225 315.356, 1775.383 275.266, 1734.723 261.399 C 1717.767 255.616, 1755.019 255.989, 1208.119 256.122 C 807.525 256.220, 702.133 256.507, 688.913 257.536 M 730.849 684.564 C 683.082 693.209, 648.879 736.190, 651.324 784.500 C 653.435 826.216, 681.182 861.398, 721.133 873.013 C 725.185 874.191, 729.400 875.571, 730.500 876.078 C 731.702 876.633, 842.167 877.112, 1007.500 877.279 L 1282.500 877.556 1299 880.188 C 1330.877 885.273, 1356.416 892.377, 1383.340 903.650 C 1437.357 926.265, 1486.011 964.117, 1520.889 1010.659 C 1556.136 1057.694, 1577.361 1108.893, 1586.116 1168 C 1588.711 1185.520, 1589.713 1222.413, 1588.098 1241 C 1580.731 1325.815, 1541.923 1405.038, 1480.175 1461.318 C 1428.619 1508.307, 1367.998 1536.756, 1297 1547.281 L 1282.500 1549.431 1007.081 1549.733 C 847.419 1549.908, 731.208 1550.410, 730.581 1550.928 C 729.987 1551.419, 726.575 1552.576, 723 1553.498 C 701.024 1559.169, 680.402 1574.067, 667.327 1593.718 C 657.306 1608.778, 652.250 1624.189, 651.324 1642.500 C 649.175 1684.951, 675.338 1724.066, 715.364 1738.244 C 732.593 1744.347, 714.455 1744, 1016.431 1744 C 1196.580 1744, 1297.277 1743.642, 1306.050 1742.970 C 1421.527 1734.124, 1524.404 1692.276, 1612.985 1618.115 C 1638.639 1596.637, 1673.118 1559.783, 1694.953 1530.500 C 1769.934 1429.944, 1807.062 1304.645, 1798.966 1179.483 C 1791.468 1063.569, 1746.284 953.705, 1669.628 865 C 1657.262 850.690, 1630.071 823.617, 1615.500 811.106 C 1528.266 736.206, 1419.393 691.767, 1304.170 684.029 C 1294.195 683.360, 1192.741 683.031, 1013.670 683.090 C 783.911 683.165, 737.237 683.408, 730.849 684.564" stroke="none" fill="#fb5b24" fill-rule="evenodd"/></svg>