<svg xmlns="http://www.w3.org/2000/svg" width="2000" height="2000" viewBox="0 0 2000 2000" version="1.1"><path d="M 416.019 43.081 C 324.742 50.119, 238.404 85.931, 169.351 145.394 C 153.937 158.668, 128.334 185.182, 115.657 201 C 105.360 213.848, 89.508 236.540, 81.777 249.500 C 51.393 300.432, 32.440 356.182, 24.323 418.500 C 22.577 431.905, 22.500 456.606, 22.500 1000 C 22.500 1543.394, 22.577 1568.095, 24.323 1581.500 C 36.956 1678.493, 76.587 1761.460, 142.488 1828.881 C 166.452 1853.397, 187.681 1871.015, 214.092 1888.304 C 270.296 1925.097, 331.708 1947.132, 402 1955.727 C 415.729 1957.406, 447.483 1957.500, 999 1957.500 C 1469.806 1957.500, 1583.801 1957.251, 1593.500 1956.201 C 1654.780 1949.570, 1711.992 1931.402, 1763.500 1902.217 C 1776.764 1894.701, 1804.773 1875.759, 1816.894 1866.106 C 1890.241 1807.698, 1942.206 1727.794, 1965.094 1638.230 C 1972.300 1610.031, 1976.273 1584.059, 1977.978 1554 C 1979.336 1530.063, 1979.336 469.937, 1977.978 446 C 1970.949 322.095, 1913.534 210.852, 1816.894 133.894 C 1804.773 124.241, 1776.764 105.299, 1763.500 97.783 C 1713.681 69.555, 1661.231 52.461, 1599.422 44.307 C 1587.386 42.719, 1546.727 42.591, 1006.500 42.437 C 687.500 42.347, 421.784 42.637, 416.019 43.081 M 697.500 257.071 C 566.947 265.571, 446.173 320.352, 354.328 412.729 C 262.327 505.262, 208.337 627.035, 201.024 758.500 C 200.303 771.456, 200.060 916.997, 200.258 1216 C 200.526 1621.039, 200.675 1654.998, 202.212 1661.025 C 212.494 1701.361, 240.357 1730.431, 278.571 1740.690 C 287.487 1743.084, 290.235 1743.356, 305.500 1743.356 C 320.765 1743.356, 323.513 1743.084, 332.429 1740.690 C 370.639 1730.432, 398.675 1701.173, 408.765 1661.025 C 410.252 1655.109, 410.456 1633.759, 410.952 1432.354 L 411.500 1210.208 419 1215.662 C 443.673 1233.605, 467.190 1247.703, 497 1262.421 C 552.340 1289.743, 607.156 1306, 669 1313.433 C 698.171 1316.939, 713.969 1317.112, 976.500 1316.804 L 1235.500 1316.500 1243.146 1314.317 C 1260.753 1309.292, 1274.569 1301.482, 1286.859 1289.609 C 1306.397 1270.734, 1316.366 1247.217, 1316.366 1220 C 1316.366 1199.867, 1311.268 1182.918, 1300.122 1166.002 C 1295.146 1158.448, 1283.761 1146.644, 1276.356 1141.360 C 1268.094 1135.464, 1253.297 1128.573, 1242.956 1125.805 L 1234.500 1123.541 977.500 1122.971 C 742.075 1122.450, 719.451 1122.258, 708 1120.685 C 642.832 1111.732, 589.567 1089.770, 540 1051.417 C 526.515 1040.983, 496.714 1011.587, 485.846 998 C 445.470 947.522, 422.096 891.829, 412.819 824 C 410.820 809.379, 411.125 760.647, 413.311 745.500 C 420.298 697.093, 433.687 657.206, 455.942 618.500 C 492.811 554.377, 552.140 502.714, 621.088 474.696 C 647.729 463.869, 666.604 458.700, 699.500 453.221 L 715.500 450.556 1216.500 450.014 L 1717.500 449.472 1725.794 447.241 C 1768.344 435.794, 1797.172 401.145, 1799.688 358.426 C 1802.235 315.179, 1775.436 275.225, 1734.488 261.223 C 1718.093 255.617, 1756.271 255.987, 1210.640 256.145 C 935.013 256.224, 704.100 256.641, 697.500 257.071 M 730.849 684.564 C 683.082 693.209, 648.879 736.190, 651.324 784.500 C 653.438 826.281, 681.061 861.356, 721 872.973 C 725.125 874.173, 729.400 875.570, 730.500 876.077 C 731.700 876.631, 842.442 877.123, 1007.500 877.308 L 1282.500 877.616 1296 879.763 C 1324.943 884.367, 1339.614 887.869, 1361.830 895.479 C 1425.301 917.220, 1481.202 957.699, 1520.889 1010.659 C 1556.014 1057.531, 1577.158 1108.536, 1586.230 1168.278 C 1588.088 1180.514, 1588.391 1186.828, 1588.400 1213.500 C 1588.409 1240.746, 1588.138 1246.256, 1586.156 1259 C 1574.870 1331.589, 1546.060 1392.117, 1498.576 1443 C 1449.714 1495.361, 1383.347 1531.821, 1314 1544.402 C 1281.951 1550.216, 1294.058 1550, 1000.691 1550 C 837.597 1550, 731.025 1550.364, 730.450 1550.923 C 729.928 1551.430, 726.575 1552.594, 723 1553.510 C 689.430 1562.111, 661.920 1590.488, 653.456 1625.245 C 652.618 1628.685, 651.670 1636.450, 651.350 1642.500 C 649.092 1685.111, 675.919 1724.867, 716.167 1738.557 C 733.144 1744.331, 715.103 1744, 1012.878 1744 C 1190.571 1744, 1292.139 1743.637, 1302.517 1742.965 C 1432.696 1734.533, 1553.455 1679.919, 1645.020 1588.066 C 1669.870 1563.138, 1690.238 1538.215, 1710.455 1508 C 1725.212 1485.943, 1731.225 1475.586, 1743.545 1451 C 1776.530 1385.177, 1794.201 1319.168, 1799.093 1243.500 C 1800.335 1224.288, 1799.809 1188.082, 1797.988 1167.500 C 1788.115 1055.919, 1743.703 951.328, 1669.724 865.442 C 1657.410 851.146, 1630.703 824.458, 1616.025 811.781 C 1569.063 771.223, 1512.940 738.114, 1453.815 716.088 C 1405.921 698.246, 1354.685 687.454, 1301.595 684.027 C 1291.295 683.362, 1189.273 683.032, 1012.095 683.090 C 783.677 683.165, 737.237 683.408, 730.849 684.564" stroke="none" fill="#fc5c24" fill-rule="evenodd"/><path d="M 697.500 257.071 C 566.947 265.571, 446.173 320.352, 354.328 412.729 C 262.327 505.262, 208.337 627.035, 201.024 758.500 C 200.303 771.456, 200.060 916.997, 200.258 1216 C 200.526 1621.039, 200.675 1654.998, 202.212 1661.025 C 212.494 1701.361, 240.357 1730.431, 278.571 1740.690 C 287.487 1743.084, 290.235 1743.356, 305.500 1743.356 C 320.765 1743.356, 323.513 1743.084, 332.429 1740.690 C 370.639 1730.432, 398.675 1701.173, 408.765 1661.025 C 410.252 1655.109, 410.456 1633.759, 410.952 1432.354 L 411.500 1210.208 419 1215.662 C 443.673 1233.605, 467.190 1247.703, 497 1262.421 C 552.340 1289.743, 607.156 1306, 669 1313.433 C 698.171 1316.939, 713.969 1317.112, 976.500 1316.804 L 1235.500 1316.500 1243.146 1314.317 C 1260.753 1309.292, 1274.569 1301.482, 1286.859 1289.609 C 1306.397 1270.734, 1316.366 1247.217, 1316.366 1220 C 1316.366 1199.867, 1311.268 1182.918, 1300.122 1166.002 C 1295.146 1158.448, 1283.761 1146.644, 1276.356 1141.360 C 1268.094 1135.464, 1253.297 1128.573, 1242.956 1125.805 L 1234.500 1123.541 977.500 1122.971 C 742.075 1122.450, 719.451 1122.258, 708 1120.685 C 642.832 1111.732, 589.567 1089.770, 540 1051.417 C 526.515 1040.983, 496.714 1011.587, 485.846 998 C 445.470 947.522, 422.096 891.829, 412.819 824 C 410.820 809.379, 411.125 760.647, 413.311 745.500 C 420.298 697.093, 433.687 657.206, 455.942 618.500 C 492.811 554.377, 552.140 502.714, 621.088 474.696 C 647.729 463.869, 666.604 458.700, 699.500 453.221 L 715.500 450.556 1216.500 450.014 L 1717.500 449.472 1725.794 447.241 C 1768.344 435.794, 1797.172 401.145, 1799.688 358.426 C 1802.235 315.179, 1775.436 275.225, 1734.488 261.223 C 1718.093 255.617, 1756.271 255.987, 1210.640 256.145 C 935.013 256.224, 704.100 256.641, 697.500 257.071 M 730.849 684.564 C 683.082 693.209, 648.879 736.190, 651.324 784.500 C 653.438 826.281, 681.061 861.356, 721 872.973 C 725.125 874.173, 729.400 875.570, 730.500 876.077 C 731.700 876.631, 842.442 877.123, 1007.500 877.308 L 1282.500 877.616 1296 879.763 C 1324.943 884.367, 1339.614 887.869, 1361.830 895.479 C 1425.301 917.220, 1481.202 957.699, 1520.889 1010.659 C 1556.014 1057.531, 1577.158 1108.536, 1586.230 1168.278 C 1588.088 1180.514, 1588.391 1186.828, 1588.400 1213.500 C 1588.409 1240.746, 1588.138 1246.256, 1586.156 1259 C 1574.870 1331.589, 1546.060 1392.117, 1498.576 1443 C 1449.714 1495.361, 1383.347 1531.821, 1314 1544.402 C 1281.951 1550.216, 1294.058 1550, 1000.691 1550 C 837.597 1550, 731.025 1550.364, 730.450 1550.923 C 729.928 1551.430, 726.575 1552.594, 723 1553.510 C 689.430 1562.111, 661.920 1590.488, 653.456 1625.245 C 652.618 1628.685, 651.670 1636.450, 651.350 1642.500 C 649.092 1685.111, 675.919 1724.867, 716.167 1738.557 C 733.144 1744.331, 715.103 1744, 1012.878 1744 C 1190.571 1744, 1292.139 1743.637, 1302.517 1742.965 C 1432.696 1734.533, 1553.455 1679.919, 1645.020 1588.066 C 1669.870 1563.138, 1690.238 1538.215, 1710.455 1508 C 1725.212 1485.943, 1731.225 1475.586, 1743.545 1451 C 1776.530 1385.177, 1794.201 1319.168, 1799.093 1243.500 C 1800.335 1224.288, 1799.809 1188.082, 1797.988 1167.500 C 1788.115 1055.919, 1743.703 951.328, 1669.724 865.442 C 1657.410 851.146, 1630.703 824.458, 1616.025 811.781 C 1569.063 771.223, 1512.940 738.114, 1453.815 716.088 C 1405.921 698.246, 1354.685 687.454, 1301.595 684.027 C 1291.295 683.362, 1189.273 683.032, 1012.095 683.090 C 783.677 683.165, 737.237 683.408, 730.849 684.564" stroke="none" fill="#fcfbfb" fill-rule="evenodd"/></svg>