<svg xmlns="http://www.w3.org/2000/svg" width="2000" height="2000" viewBox="0 0 2000 2000" version="1.1"><path d="M 1658.954 142.361 C 1658.704 142.601, 1424.759 143.090, 1139.075 143.447 C 853.391 143.805, 619.229 144.359, 618.713 144.677 C 618.198 144.996, 614.789 145.642, 611.138 146.114 C 607.487 146.586, 602.700 147.409, 600.500 147.944 C 596.720 148.862, 596.803 148.889, 602 148.433 C 605.025 148.167, 611.775 147.430, 617 146.794 C 624.047 145.937, 768.385 145.545, 1176 145.278 C 1676.687 144.951, 1726.367 145.061, 1735.263 146.523 C 1770.387 152.296, 1798.835 173.863, 1813.962 206.189 C 1820.689 220.565, 1824.892 242.034, 1823.614 255.500 C 1823.182 260.054, 1823.288 260.917, 1824.052 259.082 C 1825.356 255.954, 1825.358 240.661, 1824.057 235.500 C 1823.502 233.300, 1823.037 229.614, 1823.024 227.309 C 1823.011 225.004, 1822.550 222.840, 1822 222.500 C 1821.450 222.160, 1821 220.585, 1821 219 C 1821 217.415, 1820.550 215.840, 1820 215.500 C 1819.450 215.160, 1819 214.168, 1819 213.296 C 1819 211.303, 1812.021 196.617, 1810.859 196.167 C 1810.387 195.983, 1810 195.196, 1810 194.417 C 1810 193.637, 1809.660 193, 1809.244 193 C 1808.828 193, 1807.869 191.601, 1807.112 189.890 C 1806.355 188.180, 1801.182 182.161, 1795.618 176.514 C 1784.101 164.829, 1769.501 154.658, 1757.750 150.134 C 1749.608 146.999, 1740.459 144.535, 1734 143.738 C 1726.341 142.792, 1659.777 141.571, 1658.954 142.361 M 582.500 150 C 581.400 150.473, 578.475 150.898, 576 150.945 C 573.525 150.992, 570.825 151.467, 570 152 C 567.858 153.385, 569.234 153.289, 583.500 151.061 C 593.153 149.553, 594.424 149.182, 590 149.164 C 586.975 149.151, 583.600 149.527, 582.500 150 M 557.676 153.657 C 557.315 154.018, 555.102 154.660, 552.760 155.082 C 550.417 155.505, 546.475 156.338, 544 156.933 C 541.525 157.529, 538.434 158.259, 537.132 158.557 C 535.830 158.854, 534.953 159.286, 535.183 159.517 C 535.414 159.747, 543.004 158.400, 552.051 156.523 C 565.071 153.821, 567.440 153.098, 563.417 153.055 C 560.621 153.025, 558.038 153.296, 557.676 153.657 M 526 161.037 C 524.625 161.490, 521.700 162.336, 519.500 162.918 C 512.713 164.712, 504.907 167.241, 505.213 167.546 C 505.372 167.706, 512.027 166.106, 520.001 163.990 C 527.976 161.875, 533.150 160.160, 531.500 160.179 C 529.850 160.197, 527.375 160.583, 526 161.037 M 307.879 270.272 C 295.899 279.731, 289.114 285.488, 289.057 286.244 C 289.026 286.653, 293.166 283.503, 298.258 279.244 C 303.350 274.985, 309.313 270.053, 311.508 268.284 C 313.704 266.514, 315.275 265.062, 315 265.055 C 314.725 265.049, 311.520 267.396, 307.879 270.272 M 1822.175 267.138 C 1821.875 271.665, 1817.074 286.971, 1813.585 294.522 C 1808.840 304.792, 1802.864 313.256, 1793.658 322.743 C 1778.820 338.034, 1762.733 347.039, 1740.006 352.775 C 1734.042 354.281, 1698.735 354.463, 1316 354.966 C 1064.580 355.296, 962.147 355.655, 1058.500 355.868 C 1434.019 356.700, 1725.472 356.485, 1734 355.371 C 1741.716 354.363, 1751.455 351.710, 1758 348.832 C 1759.375 348.227, 1761.625 347.234, 1763 346.625 C 1777.358 340.261, 1794.366 326.245, 1803.802 313 C 1806.348 309.425, 1808.692 306.275, 1809.011 306 C 1809.658 305.442, 1818.871 286.629, 1820.031 283.500 C 1822.275 277.445, 1823.104 273.018, 1822.748 269 C 1822.529 266.525, 1822.271 265.687, 1822.175 267.138 M 278.710 295.069 C 266.458 306.198, 258.937 313.647, 262.500 311.124 C 265.698 308.859, 288.843 287.019, 288 287.060 C 287.725 287.074, 283.544 290.678, 278.710 295.069 M 252.520 320.250 C 242.328 331.204, 241.319 332.711, 249.339 325 C 256.111 318.489, 259.932 314, 258.703 314 C 258.500 314, 255.718 316.813, 252.520 320.250 M 234.419 340.250 C 230.599 344.238, 222.663 353.575, 216.784 361 C 201.892 379.809, 201.714 380.047, 202.203 380.536 C 202.443 380.776, 207.625 374.567, 213.719 366.737 C 219.812 358.906, 228.676 348.113, 233.415 342.750 C 238.154 337.387, 241.881 333, 241.698 333 C 241.514 333, 238.239 336.262, 234.419 340.250 M 655 356 L 648.500 356.655 657.500 356.757 C 662.450 356.813, 667.400 356.473, 668.500 356 C 670.878 354.978, 665.142 354.978, 655 356 M 198.269 385.750 C 194.543 390.570, 182 408.854, 182 409.465 C 182 409.721, 179.525 413.767, 176.500 418.456 C 173.475 423.145, 171 427.164, 171 427.386 C 171 427.609, 167.496 434.026, 163.214 441.646 C 156.256 454.026, 153.598 459.233, 144.257 478.783 C 142.869 481.689, 141.950 484.283, 142.215 484.549 C 142.481 484.814, 144.826 480.412, 147.428 474.766 C 158.231 451.322, 175.476 421.040, 191.574 397.250 C 201.712 382.267, 204.001 378.335, 198.269 385.750 M 412.108 478.250 C 407.173 483.887, 401.267 490.975, 398.983 494 C 394.905 499.402, 394.899 499.420, 398.665 495.044 C 400.774 492.593, 406.897 485.505, 412.271 479.294 C 417.645 473.082, 421.826 468, 421.561 468 C 421.296 468, 417.042 472.613, 412.108 478.250 M 140.032 488.417 C 139.468 489.898, 137.689 493.898, 136.077 497.305 C 134.465 500.712, 132.469 505.561, 131.643 508.080 C 130.816 510.599, 129.249 514.649, 128.160 517.080 C 127.072 519.511, 124.581 526.450, 122.624 532.500 C 117.491 548.371, 116.829 550.306, 115.866 552.236 C 115.390 553.191, 115.006 555.216, 115.013 556.736 C 115.021 558.256, 118.359 549.600, 122.432 537.500 C 126.504 525.400, 132.554 508.993, 135.876 501.041 C 139.198 493.089, 141.722 486.389, 141.486 486.152 C 141.249 485.916, 140.595 486.935, 140.032 488.417 M 113.442 561.607 C 113.109 562.648, 112.424 564.534, 111.919 565.797 C 111.413 567.060, 111 569.228, 111 570.613 C 111 571.998, 110.495 574.075, 109.878 575.227 C 108.580 577.654, 105.962 589.554, 106.080 592.500 C 106.123 593.600, 108.139 586.879, 110.560 577.563 C 112.980 568.248, 114.755 560.421, 114.504 560.170 C 114.253 559.919, 113.775 560.566, 113.442 561.607 M 104.598 596.107 C 103.958 598.092, 102.961 603.756, 102.328 609 C 102.030 611.475, 101.354 614.032, 100.826 614.682 C 99.665 616.115, 98.132 625.187, 96.887 638 C 96.379 643.225, 95.516 651.325, 94.969 656 C 91.739 683.590, 91.698 690.039, 91.701 1176.500 C 91.703 1443.800, 92.039 1664.750, 92.449 1667.500 C 92.859 1670.250, 93.600 1672.927, 94.097 1673.450 C 94.594 1673.972, 95 1676.020, 95 1678 C 95 1679.980, 95.372 1682.028, 95.826 1682.550 C 96.280 1683.073, 97.260 1685.525, 98.004 1688 C 98.747 1690.475, 99.857 1693.175, 100.471 1694 C 101.084 1694.825, 102.233 1696.850, 103.024 1698.500 C 112.118 1717.470, 135.553 1739.512, 155.283 1747.650 C 158.702 1749.061, 162.400 1750.583, 163.500 1751.032 C 164.600 1751.482, 166.850 1752.132, 168.500 1752.478 C 170.150 1752.824, 173.525 1753.604, 176 1754.211 C 182.590 1755.828, 228.096 1756.391, 235.500 1754.948 C 242.532 1753.577, 248.113 1751.916, 249.450 1750.796 C 249.973 1750.358, 251.173 1750, 252.117 1750 C 253.061 1750, 256.909 1748.350, 260.667 1746.333 C 264.425 1744.315, 268.850 1741.953, 270.500 1741.083 C 280.082 1736.028, 293.148 1723.933, 302.318 1711.629 C 307.145 1705.153, 310.676 1698.668, 315.456 1687.500 C 316.398 1685.300, 317.580 1682.719, 318.084 1681.764 C 318.588 1680.809, 319 1678.536, 319 1676.714 C 319 1674.891, 319.404 1672.972, 319.898 1672.450 C 320.391 1671.927, 321.138 1669.475, 321.558 1667 C 321.977 1664.525, 322.461 1556.975, 322.633 1428 C 322.805 1299.025, 322.958 1190.688, 322.973 1187.250 C 322.995 1182.181, 323.304 1181, 324.611 1181 C 325.830 1181, 325.648 1180.536, 323.861 1179.088 L 321.500 1177.177 321 1421.338 L 320.500 1665.500 317.775 1675.500 C 306.452 1717.057, 272.994 1747.226, 231.252 1753.518 C 218.748 1755.403, 195.252 1755.403, 182.748 1753.518 C 137.049 1746.630, 102.073 1712.041, 94.516 1666.263 C 93.046 1657.356, 92.938 1613.587, 93.288 1167 C 93.573 802.371, 93.969 674.949, 94.838 667.500 C 97.319 646.250, 100.177 626.871, 103.078 611.632 C 104.739 602.905, 105.861 595.528, 105.573 595.239 C 105.284 594.950, 104.845 595.341, 104.598 596.107 M 680.500 604.998 C 679.400 605.472, 676.732 605.891, 674.571 605.930 C 672.410 605.968, 669.260 606.421, 667.571 606.935 C 665.882 607.450, 661.575 608.663, 658 609.631 C 650.827 611.575, 644.586 613.923, 645.142 614.469 C 645.339 614.663, 648.681 613.753, 652.569 612.447 C 669.741 606.680, 650.873 607, 974.051 607 C 1166.977 607, 1276.206 607.360, 1286.170 608.029 C 1369.743 613.642, 1454.094 637.956, 1523.500 676.440 C 1574.965 704.975, 1615.039 735.057, 1656.092 775.971 C 1677.422 797.229, 1690.197 811.830, 1707.300 834.500 C 1730.924 865.813, 1747.287 892.466, 1765.008 928.500 C 1782.174 963.403, 1795.662 999.490, 1805.417 1036.614 C 1809.092 1050.598, 1809.867 1052.694, 1809.927 1048.809 C 1809.967 1046.229, 1809.550 1043.840, 1809 1043.500 C 1808.450 1043.160, 1808 1041.928, 1808 1040.762 C 1808 1038.505, 1807.530 1036.838, 1803.538 1024.932 C 1802.142 1020.769, 1801 1016.601, 1801 1015.668 C 1801 1014.736, 1800.594 1013.191, 1800.097 1012.236 C 1799.601 1011.281, 1798.649 1008.475, 1797.981 1006 C 1796.647 1001.051, 1795.329 997.077, 1793.504 992.500 C 1792.846 990.850, 1791.759 987.700, 1791.088 985.500 C 1790.417 983.300, 1789.485 980.600, 1789.017 979.500 C 1788.550 978.400, 1786.499 973.225, 1784.461 968 C 1782.423 962.775, 1779.412 955.575, 1777.772 952 C 1776.131 948.425, 1773.950 943.382, 1772.926 940.793 C 1769.988 933.370, 1752.924 900.560, 1745.989 889 C 1732.311 866.202, 1716.205 842.399, 1707.049 831.453 C 1705.647 829.777, 1703.600 827.133, 1702.500 825.577 C 1699.397 821.188, 1695.882 816.897, 1691.511 812.160 C 1689.308 809.773, 1686.604 806.656, 1685.503 805.234 C 1680.434 798.691, 1671.503 788.690, 1662.899 779.922 C 1643.263 759.912, 1612.148 732.786, 1593.594 719.500 C 1592.057 718.400, 1589.347 716.372, 1587.570 714.994 C 1585.793 713.616, 1578.976 708.918, 1572.420 704.554 C 1565.864 700.191, 1558.626 695.356, 1556.337 693.810 C 1554.047 692.265, 1551.914 691, 1551.597 691 C 1551.280 691, 1547.861 688.975, 1544 686.500 C 1540.139 684.025, 1536.716 682, 1536.394 682 C 1536.072 682, 1534.614 681.158, 1533.154 680.129 C 1531.694 679.100, 1525.100 675.450, 1518.500 672.018 C 1511.900 668.585, 1504.925 664.942, 1503 663.921 C 1499.878 662.266, 1490.919 658.162, 1482.500 654.531 C 1480.850 653.820, 1477.822 652.492, 1475.771 651.582 C 1473.720 650.671, 1470.223 649.284, 1468 648.500 C 1465.777 647.716, 1462.505 646.433, 1460.729 645.651 C 1458.953 644.868, 1454.800 643.229, 1451.500 642.007 C 1448.200 640.786, 1442.800 638.759, 1439.500 637.502 C 1436.200 636.246, 1430.125 634.226, 1426 633.015 C 1414.316 629.582, 1401.700 625.759, 1399.500 624.983 C 1393.410 622.834, 1390.051 621.997, 1387.429 621.975 C 1385.818 621.962, 1381.800 621.023, 1378.500 619.888 C 1375.200 618.754, 1370.025 617.453, 1367 616.997 C 1363.975 616.542, 1359.700 615.628, 1357.500 614.967 C 1355.300 614.306, 1349.450 613.395, 1344.500 612.944 C 1334.454 612.027, 1325.626 610.505, 1323.798 609.375 C 1323.134 608.965, 1316.045 608.273, 1308.045 607.838 C 1300.045 607.403, 1289.675 606.518, 1285 605.872 C 1274.755 604.455, 683.745 603.601, 680.500 604.998 M 634.466 618.834 C 610.881 633.163, 591.006 656.183, 585.111 676 C 584.374 678.475, 583.422 681.400, 582.995 682.500 C 579.710 690.955, 579 695.922, 579 710.456 C 579 721.077, 579.450 727.167, 580.489 730.591 C 581.308 733.291, 581.983 736.711, 581.989 738.191 C 581.995 739.671, 582.450 741.160, 583 741.500 C 583.550 741.840, 584 742.998, 584 744.073 C 584 745.148, 584.398 746.809, 584.884 747.764 C 585.371 748.719, 587.506 753.100, 589.629 757.500 C 597.137 773.058, 607.084 785.366, 619.500 794.463 C 621.700 796.075, 623.725 797.670, 624 798.006 C 625.136 799.397, 640.180 808, 641.476 808 C 642.249 808, 643.160 808.450, 643.500 809 C 643.840 809.550, 644.879 809.986, 645.809 809.968 C 646.739 809.951, 643.450 807.814, 638.500 805.218 C 622.534 796.848, 612.434 788.535, 602.656 775.717 C 570.210 733.184, 574.615 673.295, 612.879 636.738 C 621.589 628.416, 627.426 624.160, 637.500 618.787 C 641.350 616.733, 643.600 615.079, 642.500 615.110 C 641.400 615.142, 637.785 616.818, 634.466 618.834 M 325.748 660.136 C 324.787 665.986, 324.032 671.611, 324.070 672.636 C 324.203 676.152, 325.852 670.879, 325.930 666.693 C 325.968 664.599, 326.489 660.944, 327.086 658.571 C 327.684 656.198, 328.021 653.187, 327.835 651.878 C 327.649 650.570, 326.710 654.286, 325.748 660.136 M 321.656 694.750 C 320.865 706.695, 320.968 733.497, 321.850 745 C 322.212 749.727, 322.521 738.296, 322.545 719.250 C 322.569 700.413, 322.524 685, 322.445 685 C 322.366 685, 322.011 689.388, 321.656 694.750 M 324.466 769 C 324.857 772.575, 325.792 778.425, 326.542 782 L 327.907 788.500 327.527 782.500 C 327.018 774.450, 325.373 764.030, 324.478 763.185 C 324.080 762.808, 324.074 765.425, 324.466 769 M 648.500 810.679 C 650.419 812.547, 667.838 817.027, 672.654 816.892 C 675.665 816.807, 674.918 816.495, 669.215 815.453 C 662.711 814.264, 654.318 812.109, 649.287 810.336 C 648.118 809.924, 647.846 810.042, 648.500 810.679 M 1240.500 818 C 1241.600 818.473, 1248.350 818.820, 1255.500 818.772 C 1266.905 818.696, 1267.641 818.597, 1261.500 817.967 C 1251.326 816.923, 1238.042 816.944, 1240.500 818 M 1321 828.904 C 1321.825 829.490, 1323.486 829.976, 1324.691 829.985 C 1325.896 829.993, 1327.160 830.450, 1327.500 831 C 1327.840 831.550, 1329.138 832, 1330.384 832 C 1331.630 832, 1335.974 833.131, 1340.037 834.513 C 1344.100 835.895, 1347.839 836.887, 1348.346 836.718 C 1349.286 836.405, 1327.947 829.586, 1322.500 828.459 C 1320.217 827.987, 1319.858 828.093, 1321 828.904 M 341.493 839 C 345.905 853.887, 361.204 886.552, 372.646 905.517 C 423.129 989.189, 502.561 1048.192, 596.889 1072.088 C 607.554 1074.790, 617.143 1077, 618.198 1077 C 621.447 1077, 619.235 1075.244, 615.256 1074.663 C 607.781 1073.573, 600.438 1072.140, 597.500 1071.196 C 595.850 1070.667, 592.475 1069.695, 590 1069.038 C 581.359 1066.742, 571.477 1063.721, 568.500 1062.465 C 566.850 1061.768, 563.250 1060.446, 560.500 1059.527 C 557.750 1058.608, 554.038 1057.213, 552.250 1056.428 C 547.862 1054.500, 543.217 1052.578, 539 1050.944 C 533.182 1048.690, 503.207 1032.965, 498.846 1029.878 C 497.386 1028.845, 495.897 1028, 495.538 1028 C 495.179 1028, 491.988 1025.975, 488.447 1023.500 C 484.906 1021.025, 481.670 1018.992, 481.255 1018.982 C 480.840 1018.972, 479.150 1017.871, 477.500 1016.535 C 475.850 1015.200, 470.450 1011.076, 465.500 1007.370 C 460.550 1003.665, 454.700 998.990, 452.500 996.982 C 450.300 994.974, 443.550 988.827, 437.500 983.323 C 427.647 974.358, 411.765 957.981, 406.946 951.815 C 392.405 933.211, 379 914.761, 379 913.350 C 379 913.081, 377.717 910.979, 376.149 908.680 C 374.581 906.381, 372.011 902.250, 370.438 899.500 C 366.581 892.759, 352 863.740, 352 862.805 C 352 862.395, 350.813 859.464, 349.362 856.292 C 347.911 853.120, 346.362 849.395, 345.918 848.013 C 344.136 842.456, 342.328 837.996, 341.561 837.269 C 341.116 836.846, 341.085 837.625, 341.493 839 M 1353.500 838.869 C 1355.700 839.924, 1361.966 842.476, 1367.425 844.539 C 1379.972 849.282, 1409.857 864.141, 1421 871.176 C 1443.353 885.289, 1460.368 898.389, 1482.313 918.382 C 1489.571 924.993, 1501.410 937.877, 1513.593 952.420 C 1518.653 958.460, 1539 987.255, 1539 988.376 C 1539 988.698, 1540.538 991.366, 1542.419 994.306 C 1547.855 1002.804, 1562 1029.663, 1562 1031.488 C 1562 1031.782, 1562.945 1034.154, 1564.100 1036.761 C 1565.254 1039.367, 1566.589 1042.400, 1567.066 1043.500 C 1572.002 1054.893, 1573 1057.439, 1573 1058.638 C 1573 1059.402, 1573.450 1060.921, 1574 1062.014 C 1574.550 1063.106, 1575.450 1064.894, 1576 1065.986 C 1576.550 1067.079, 1577 1069.014, 1577 1070.286 C 1577 1071.559, 1577.403 1073.027, 1577.895 1073.550 C 1578.387 1074.072, 1579.777 1078.325, 1580.984 1083 C 1582.190 1087.675, 1583.625 1093.075, 1584.172 1095 C 1585.117 1098.324, 1585.671 1100.925, 1587.898 1112.500 C 1589.266 1119.610, 1590.778 1124.796, 1590.898 1122.794 C 1591.098 1119.460, 1584.978 1092.218, 1581.010 1078.776 C 1567.081 1031.600, 1543.106 986.553, 1511.576 948.321 C 1493.962 926.962, 1467.019 901.846, 1443.579 884.936 C 1421.983 869.356, 1391.122 852.568, 1366 842.735 C 1353.248 837.744, 1347.349 835.919, 1353.500 838.869 M 1810 1054.470 C 1810 1054.793, 1811.154 1060.757, 1812.565 1067.724 C 1813.975 1074.691, 1815.975 1085.590, 1817.008 1091.945 C 1818.816 1103.059, 1818.874 1103.214, 1818.535 1096 C 1818.341 1091.875, 1817.708 1086.250, 1817.128 1083.500 C 1816.548 1080.750, 1815.577 1075.376, 1814.970 1071.558 C 1814.362 1067.740, 1813.445 1063.832, 1812.933 1062.874 C 1812.420 1061.916, 1812 1059.778, 1812 1058.125 C 1812 1056.471, 1811.550 1054.840, 1811 1054.500 C 1810.450 1054.160, 1810 1054.146, 1810 1054.470 M 621.083 1077.394 C 621.313 1077.611, 628.783 1078.783, 637.685 1079.999 C 654.229 1082.259, 661.572 1082.341, 649.958 1080.135 C 646.406 1079.461, 642.118 1078.479, 640.429 1077.954 C 637.530 1077.054, 620.192 1076.551, 621.083 1077.394 M 919.500 1081.971 C 777.050 1082.265, 662.075 1082.615, 664 1082.749 C 665.925 1082.884, 789.900 1083.107, 939.500 1083.247 L 1211.500 1083.500 1221.500 1086.225 C 1262.603 1097.425, 1293.079 1130.893, 1299.457 1171.835 L 1300.806 1180.500 1300.903 1173.071 C 1300.956 1168.985, 1300.591 1164.260, 1300.090 1162.571 C 1297.384 1153.434, 1296.424 1150.858, 1293.168 1144 C 1287.606 1132.287, 1281.976 1124.220, 1272.885 1114.941 C 1261.096 1102.908, 1252.447 1096.669, 1238 1089.780 C 1230.918 1086.403, 1228.709 1085.672, 1221.500 1084.314 C 1219.850 1084.003, 1218.050 1083.413, 1217.500 1083.003 C 1215.583 1081.574, 1176.808 1081.440, 919.500 1081.971 M 1819.329 1109.500 C 1819.651 1111.700, 1820.386 1118.450, 1820.963 1124.500 C 1822.682 1142.528, 1822.788 1143.006, 1822.412 1131 C 1821.938 1115.882, 1821.063 1107.730, 1819.784 1106.500 C 1819.068 1105.811, 1818.926 1106.744, 1819.329 1109.500 M 1593.070 1147.583 C 1593.109 1151.388, 1593.549 1155.400, 1594.047 1156.500 C 1594.624 1157.771, 1594.734 1155.402, 1594.349 1150 C 1593.602 1139.518, 1592.976 1138.335, 1593.070 1147.583 M 1824.267 1181 C 1824.267 1193.921, 1824.530 1198.813, 1825.046 1195.500 C 1825.474 1192.750, 1825.825 1186.225, 1825.825 1181 C 1825.825 1175.775, 1825.474 1169.250, 1825.046 1166.500 C 1824.530 1163.187, 1824.267 1168.079, 1824.267 1181 M 1595.397 1181 C 1595.397 1188.975, 1595.553 1192.237, 1595.743 1188.250 C 1595.932 1184.263, 1595.932 1177.737, 1595.743 1173.750 C 1595.553 1169.763, 1595.397 1173.025, 1595.397 1181 M 329 1183.650 C 329 1184.719, 334.549 1188.564, 357.235 1203.215 C 378.595 1217.009, 386.082 1221.348, 408.500 1232.921 C 416.959 1237.288, 428.044 1242.454, 436 1245.738 C 437.925 1246.532, 442.803 1248.716, 446.839 1250.591 C 450.876 1252.466, 454.526 1254, 454.952 1254 C 455.377 1254, 459.049 1255.384, 463.112 1257.077 C 467.176 1258.769, 474.100 1261.303, 478.500 1262.709 C 482.900 1264.115, 488.975 1266.161, 492 1267.255 C 495.025 1268.349, 499.075 1269.665, 501 1270.179 C 502.925 1270.692, 505.850 1271.494, 507.500 1271.960 C 516.644 1274.541, 531.024 1278.316, 534.500 1279.048 C 536.700 1279.512, 540.525 1280.390, 543 1281 C 545.475 1281.610, 549.300 1282.481, 551.500 1282.936 C 553.700 1283.391, 558.875 1284.542, 563 1285.493 C 567.125 1286.445, 574.325 1287.650, 579 1288.170 C 583.675 1288.690, 590.650 1289.555, 594.500 1290.092 C 616.725 1293.191, 628.234 1293.308, 918 1293.378 C 1137.498 1293.432, 1211.873 1293.158, 1216 1292.281 C 1219.025 1291.639, 1222.850 1290.821, 1224.500 1290.464 C 1226.150 1290.107, 1229.408 1288.957, 1231.739 1287.908 C 1234.071 1286.858, 1236.483 1286, 1237.101 1286 C 1238.696 1286, 1250.837 1279.344, 1255 1276.188 C 1261.532 1271.234, 1262.395 1270.504, 1268.797 1264.500 C 1280.149 1253.855, 1290.730 1237.979, 1295.458 1224.500 C 1297.507 1218.657, 1298.887 1215.180, 1300.117 1212.764 C 1300.603 1211.809, 1300.956 1207.534, 1300.903 1203.264 L 1300.806 1195.500 1299.457 1204.165 C 1296.068 1225.917, 1285.733 1246.145, 1269.939 1261.939 C 1253.026 1278.852, 1232.010 1289.014, 1207.807 1291.982 C 1200.968 1292.821, 1123.196 1293.025, 914.500 1292.751 C 657.329 1292.413, 628.989 1292.220, 614.500 1290.700 C 560.937 1285.081, 513.227 1274.214, 468 1257.331 C 420.354 1239.545, 381.521 1219.256, 338.750 1189.803 C 333.387 1186.110, 329 1183.342, 329 1183.650 M 1593.750 1200.332 C 1593.338 1201.339, 1593 1206.312, 1593 1211.382 C 1593 1216.452, 1592.591 1221.027, 1592.092 1221.550 C 1591.284 1222.395, 1589.900 1231.746, 1588.400 1246.500 C 1588.120 1249.250, 1587.497 1252.400, 1587.014 1253.500 C 1586.031 1255.740, 1585.095 1260.519, 1584.467 1266.500 C 1584.058 1270.393, 1584.087 1270.367, 1585.525 1265.500 C 1587.889 1257.498, 1591.741 1235.679, 1593.502 1220.313 C 1595.136 1206.058, 1595.253 1196.662, 1593.750 1200.332 M 1822.201 1224.500 C 1822.081 1227.250, 1821.315 1235.125, 1820.500 1242 C 1818.729 1256.931, 1818.754 1256.270, 1820 1255.500 C 1820.550 1255.160, 1821 1252.726, 1821 1250.090 C 1821 1247.455, 1821.467 1243.958, 1822.038 1242.320 C 1822.609 1240.682, 1822.929 1234.877, 1822.748 1229.421 C 1822.567 1223.964, 1822.320 1221.750, 1822.201 1224.500 M 1817.193 1267.500 C 1815.989 1275.784, 1811.656 1299.261, 1810.290 1304.899 C 1809.889 1306.555, 1810.064 1307.079, 1810.854 1306.590 C 1811.484 1306.201, 1812 1304.754, 1812 1303.375 C 1812 1301.997, 1812.436 1300.054, 1812.968 1299.059 C 1813.501 1298.064, 1814.386 1294.156, 1814.936 1290.375 C 1815.486 1286.594, 1816.430 1281.025, 1817.034 1278 C 1818.531 1270.497, 1819.242 1263.749, 1818.837 1260.886 C 1818.652 1259.574, 1817.912 1262.550, 1817.193 1267.500 M 1582.618 1272.107 C 1582.382 1272.873, 1581.472 1275.835, 1580.595 1278.688 C 1579.718 1281.541, 1579 1284.777, 1579 1285.879 C 1579 1286.981, 1578.550 1288.160, 1578 1288.500 C 1577.450 1288.840, 1577 1290.190, 1577 1291.500 C 1577 1292.810, 1576.550 1294.160, 1576 1294.500 C 1575.450 1294.840, 1575 1296.126, 1575 1297.359 C 1575 1298.592, 1574.642 1300.027, 1574.204 1300.550 C 1573.766 1301.072, 1572.815 1303.300, 1572.089 1305.500 C 1570.512 1310.281, 1568.496 1315.123, 1565.906 1320.345 C 1564.858 1322.459, 1564 1324.587, 1564 1325.073 C 1564 1325.560, 1561.975 1330.125, 1559.500 1335.218 C 1557.025 1340.312, 1555 1345.009, 1555 1345.656 C 1555 1346.304, 1554.662 1346.983, 1554.250 1347.167 C 1553.838 1347.350, 1552.155 1350.200, 1550.512 1353.500 C 1548.869 1356.800, 1546.056 1361.841, 1544.262 1364.702 C 1542.468 1367.563, 1541 1370.306, 1541 1370.797 C 1541 1371.288, 1540.100 1372.505, 1539 1373.500 C 1537.900 1374.495, 1537 1375.747, 1537 1376.282 C 1537 1377.625, 1519.793 1402.165, 1513.707 1409.500 C 1502.061 1423.539, 1489.620 1436.727, 1477.153 1448.250 C 1473.136 1451.963, 1470.287 1455, 1470.822 1455 C 1472.590 1455, 1501.474 1425.695, 1510.567 1414.675 C 1521.112 1401.898, 1533.692 1384.514, 1541.671 1371.692 C 1548.470 1360.769, 1562.124 1334.130, 1567.397 1321.500 C 1574.508 1304.466, 1584.823 1272.490, 1583.601 1271.268 C 1583.296 1270.963, 1582.854 1271.341, 1582.618 1272.107 M 1805.791 1323 C 1803.750 1330.975, 1801.777 1338.625, 1801.405 1340 C 1800.953 1341.670, 1801.061 1342.168, 1801.730 1341.500 C 1802.281 1340.950, 1803.515 1337.350, 1804.471 1333.500 C 1806.386 1325.785, 1807.703 1321.564, 1809.168 1318.441 C 1809.699 1317.308, 1809.991 1314.608, 1809.817 1312.441 C 1809.555 1309.181, 1808.859 1311.005, 1805.791 1323 M 1791.606 1370.294 C 1786.733 1384.438, 1775.845 1411.463, 1771.921 1419.154 C 1770.788 1421.376, 1770.086 1423.419, 1770.361 1423.694 C 1770.636 1423.969, 1771.831 1422.013, 1773.017 1419.347 C 1774.202 1416.681, 1776.010 1412.700, 1777.034 1410.500 C 1780.114 1403.882, 1786 1389.616, 1786 1388.769 C 1786 1388.334, 1786.867 1386.071, 1787.926 1383.739 C 1790.871 1377.259, 1797.244 1358.228, 1796.850 1357.093 C 1796.657 1356.540, 1794.298 1362.481, 1791.606 1370.294 M 1762.675 1438.625 C 1758.965 1446.071, 1756.367 1451.891, 1756.903 1451.560 C 1758.052 1450.850, 1770.322 1425.989, 1769.787 1425.454 C 1769.586 1425.253, 1766.386 1431.180, 1762.675 1438.625 M 1749.498 1463.177 C 1746.372 1468.775, 1743.129 1474.400, 1742.292 1475.677 C 1741.455 1476.955, 1741 1478, 1741.281 1478 C 1742.146 1478, 1752.389 1461.012, 1754.697 1455.750 C 1757.072 1450.335, 1755.089 1453.168, 1749.498 1463.177 M 1431.301 1483.867 C 1418.146 1492.536, 1412.904 1496.474, 1420.500 1491.982 C 1426.877 1488.211, 1445 1476.002, 1445 1475.478 C 1445 1474.804, 1445.774 1474.330, 1431.301 1483.867 M 1730.975 1493.703 C 1728.629 1497.441, 1723.325 1505.225, 1719.187 1511 C 1715.050 1516.775, 1712.459 1520.846, 1713.429 1520.047 C 1716.471 1517.543, 1736.464 1488.131, 1735.667 1487.334 C 1735.432 1487.098, 1733.320 1489.964, 1730.975 1493.703 M 1708.876 1525.250 C 1707.632 1527.037, 1702.876 1533.112, 1698.306 1538.750 C 1690.270 1548.664, 1687.751 1552.770, 1694.239 1545.381 C 1697.893 1541.219, 1712 1522.951, 1712 1522.381 C 1712 1521.322, 1710.914 1522.320, 1708.876 1525.250 M 1297.709 1537.625 C 1297.097 1538.237, 1291.008 1539.186, 1276 1541.008 C 1263.068 1542.578, 1057.054 1543.175, 867.303 1542.193 C 752.888 1541.600, 683.505 1541.601, 680.803 1542.194 C 676.133 1543.220, 667.712 1544.745, 661.744 1545.645 C 659.678 1545.956, 657.739 1546.614, 657.435 1547.106 C 657.131 1547.598, 655.810 1548, 654.500 1548 C 653.190 1548, 651.840 1548.450, 651.500 1549 C 651.160 1549.550, 650.265 1550, 649.511 1550 C 645.663 1550, 627.894 1560.051, 618.573 1567.500 C 611.704 1572.990, 601.411 1583.662, 598.212 1588.612 C 596.474 1591.301, 594.586 1594.049, 594.016 1594.719 C 593.445 1595.390, 591.365 1599.440, 589.393 1603.719 C 587.421 1607.999, 585.401 1612.281, 584.904 1613.236 C 584.407 1614.191, 584 1615.852, 584 1616.927 C 584 1618.002, 583.550 1619.160, 583 1619.500 C 582.450 1619.840, 581.986 1621.329, 581.968 1622.809 C 581.951 1624.289, 581.276 1626.374, 580.468 1627.441 C 578.317 1630.285, 578.343 1666.492, 580.500 1671.654 C 581.325 1673.629, 582 1676.288, 582 1677.563 C 582 1678.838, 582.450 1680.160, 583 1680.500 C 583.550 1680.840, 584 1681.998, 584 1683.073 C 584 1684.148, 584.415 1685.809, 584.922 1686.764 C 585.428 1687.719, 587.507 1692.100, 589.540 1696.500 C 591.573 1700.900, 593.522 1704.725, 593.870 1705 C 594.218 1705.275, 595.177 1706.850, 596.002 1708.500 C 598.452 1713.406, 618.947 1733.388, 626.574 1738.307 C 633.393 1742.705, 645.271 1748.634, 651.500 1750.749 C 654.654 1751.820, 659.498 1753.140, 667 1754.973 C 672.964 1756.430, 1283.614 1755.629, 1302 1754.141 C 1308.875 1753.584, 1317.650 1752.635, 1321.500 1752.033 C 1325.350 1751.431, 1331.650 1750.547, 1335.500 1750.070 C 1339.350 1749.592, 1346.100 1748.463, 1350.500 1747.560 C 1354.900 1746.657, 1360.750 1745.513, 1363.500 1745.017 C 1366.250 1744.521, 1370.525 1743.614, 1373 1743.003 C 1375.475 1742.391, 1379.300 1741.514, 1381.500 1741.053 C 1389.685 1739.339, 1402.557 1735.889, 1404.236 1734.960 C 1405.191 1734.432, 1407.077 1734, 1408.427 1734 C 1409.777 1734, 1411.160 1733.550, 1411.500 1733 C 1411.840 1732.450, 1413.640 1732, 1415.500 1732 C 1417.360 1732, 1419.128 1731.602, 1419.429 1731.115 C 1419.729 1730.629, 1421.219 1729.991, 1422.738 1729.699 C 1426.262 1729.020, 1438.762 1724.571, 1439.656 1723.678 C 1440.028 1723.305, 1441.164 1723, 1442.180 1723 C 1443.196 1723, 1444.809 1722.592, 1445.764 1722.092 C 1446.719 1721.593, 1451.775 1719.524, 1457 1717.494 C 1473.499 1711.084, 1499.357 1699.551, 1509 1694.302 C 1510.375 1693.553, 1515.100 1691.094, 1519.500 1688.837 C 1535.252 1680.758, 1570.425 1658.897, 1585.418 1647.869 C 1594.986 1640.831, 1612.259 1627.304, 1616.500 1623.528 C 1618.150 1622.059, 1621.075 1619.657, 1623 1618.191 C 1624.925 1616.725, 1628.975 1613.192, 1632 1610.339 C 1635.025 1607.487, 1638.513 1604.278, 1639.750 1603.209 C 1640.987 1602.140, 1642 1600.909, 1642 1600.474 C 1642 1600.039, 1639.188 1602.368, 1635.750 1605.649 C 1632.313 1608.930, 1623.875 1616.286, 1617 1621.995 C 1549.366 1678.158, 1469.597 1718.365, 1386 1738.429 C 1355.439 1745.764, 1332.912 1749.541, 1301 1752.680 C 1283.561 1754.396, 1264.973 1754.500, 977 1754.500 L 671.500 1754.500 662.548 1752.221 C 613.526 1739.740, 581 1698.968, 581 1650 C 581 1604.173, 610.210 1564.226, 654.072 1550.066 C 670.559 1544.744, 654.662 1545.004, 965 1544.984 C 1144.267 1544.972, 1256.076 1544.599, 1262 1543.991 C 1273.945 1542.766, 1291.517 1540.247, 1300 1538.544 C 1305.940 1537.351, 1306.148 1537.228, 1302.417 1537.119 C 1300.171 1537.054, 1298.052 1537.281, 1297.709 1537.625 M 1680.341 1560.250 C 1675.380 1565.888, 1664.851 1577.250, 1656.942 1585.500 C 1649.034 1593.750, 1643.893 1599.375, 1645.519 1598 C 1647.144 1596.625, 1652.530 1591.228, 1657.487 1586.008 C 1662.444 1580.787, 1670.574 1572.237, 1675.553 1567.008 C 1683.637 1558.516, 1690.737 1550, 1689.732 1550 C 1689.528 1550, 1685.302 1554.612, 1680.341 1560.250" stroke="none" fill="#fcf2ef" fill-rule="evenodd"/><path d="M 629 146.085 C 516.699 153.891, 409.361 193.966, 321 261.078 C 227.203 332.318, 159.517 426.574, 122.497 537.500 C 108.601 579.140, 100.964 615.035, 94.838 667.500 C 93.969 674.949, 93.573 802.371, 93.288 1167 C 92.938 1613.587, 93.046 1657.356, 94.516 1666.263 C 102.073 1712.041, 137.049 1746.630, 182.748 1753.518 C 195.252 1755.403, 218.748 1755.403, 231.252 1753.518 C 272.994 1747.226, 306.452 1717.057, 317.775 1675.500 L 320.500 1665.500 320.766 1421.204 L 321.032 1176.907 326.766 1181.302 C 344.931 1195.222, 381.730 1217.915, 406.500 1230.472 C 471.643 1263.496, 537.809 1282.655, 614.500 1290.700 C 628.989 1292.220, 657.329 1292.413, 914.500 1292.751 C 1123.196 1293.025, 1200.968 1292.821, 1207.807 1291.982 C 1232.010 1289.014, 1253.026 1278.852, 1269.939 1261.939 C 1292.206 1239.673, 1303.654 1207.736, 1300.156 1177.644 C 1298.505 1163.436, 1295.858 1154.418, 1289.547 1141.500 C 1276.359 1114.506, 1251.660 1094.443, 1221.500 1086.225 L 1211.500 1083.500 938.500 1083.244 C 762.920 1083.080, 661.575 1082.624, 654.500 1081.969 C 575.844 1074.677, 502.942 1043.381, 444.415 991.780 C 377.223 932.539, 334.929 852.089, 323.353 761.500 C 320.819 741.668, 320.810 696.095, 323.337 676.500 C 332.392 606.275, 358.761 543.967, 402.466 489.521 C 412.623 476.868, 436.744 452.067, 448.500 442.189 C 472.920 421.670, 496.283 406.398, 524.500 392.509 C 560.684 374.700, 596.187 363.875, 640 357.293 C 650.750 355.678, 686.791 355.528, 1192.500 354.990 C 1689.474 354.461, 1734.029 354.280, 1740.006 352.773 C 1762.006 347.227, 1776.732 339.224, 1791.743 324.658 C 1805.456 311.351, 1814.116 296.983, 1819.387 278.792 C 1835.070 224.675, 1804.713 167.576, 1751 150.160 C 1733.979 144.641, 1773.238 144.988, 1183.619 145.143 C 884.904 145.221, 635.325 145.645, 629 146.085 M 667.655 608.597 C 646.455 612.427, 628.882 621.448, 612.925 636.694 C 574.613 673.297, 570.191 733.159, 602.656 775.717 C 617.570 795.268, 638.152 808.245, 664.521 814.723 C 671.006 816.316, 692.526 816.478, 968.500 817.010 C 1242.926 817.539, 1266.374 817.713, 1277 819.309 C 1361.640 832.015, 1430.871 866.020, 1488.076 922.985 C 1518.547 953.327, 1540.938 984.840, 1559.851 1024 C 1583.964 1073.927, 1595.393 1124.412, 1595.393 1181 C 1595.393 1228.675, 1587.519 1269.989, 1569.788 1315.347 C 1563.888 1330.440, 1549.819 1358.645, 1541.683 1371.692 C 1509.865 1422.713, 1466.192 1465.304, 1415 1495.235 C 1379.374 1516.064, 1336.143 1532.223, 1298 1538.966 C 1264.804 1544.835, 1291.599 1544.347, 967.500 1544.980 C 645.936 1545.609, 668.073 1545.219, 652.500 1550.525 C 609.510 1565.173, 581 1604.838, 581 1650 C 581 1698.968, 613.526 1739.740, 662.548 1752.221 L 671.500 1754.500 977 1754.500 C 1264.973 1754.500, 1283.561 1754.396, 1301 1752.680 C 1323.328 1750.484, 1341.094 1747.955, 1358.500 1744.494 C 1435.864 1729.113, 1502.791 1701.649, 1568.058 1658.498 C 1651.813 1603.125, 1722.769 1521.634, 1766.529 1430.560 C 1831.451 1295.444, 1841.589 1142.941, 1795.020 1002 C 1785.797 974.088, 1777.818 954.546, 1765.008 928.500 C 1747.287 892.466, 1730.924 865.813, 1707.300 834.500 C 1690.197 811.830, 1677.422 797.229, 1656.092 775.971 C 1615.039 735.057, 1574.965 704.975, 1523.500 676.440 C 1454.094 637.956, 1369.743 613.642, 1286.170 608.029 C 1276.154 607.357, 1167.667 607.031, 973.170 607.090 C 720.932 607.166, 674.303 607.396, 667.655 608.597" stroke="none" fill="#fc5c24" fill-rule="evenodd"/></svg>